<svg xmlns="http://www.w3.org/2000/svg" viewBox="0 0 645.32 190.57"><defs><style>.cls-1{fill:none;}.cls-1,.cls-5{stroke:#280d43;stroke-miterlimit:10;stroke-width:2.52px;}.cls-2,.cls-5{fill:#280d43;}.cls-3{fill:#fff;}.cls-4{isolation:isolate;}</style></defs><title>LOGOSIDE</title><g id="Calque_2" data-name="Calque 2"><g id="Calque_1-2" data-name="Calque 1"><path class="cls-1" d="M264.63,128.27H229.1v.2c1,7.65,6.74,13.39,13.39,13.49a17.42,17.42,0,0,0,11.27-4.83l7.25,4.33a27.31,27.31,0,0,1-6.14,5.13A26.29,26.29,0,0,1,242.68,150a20.63,20.63,0,0,1-15.6-7,23.76,23.76,0,0,1-6.24-14.49,14.88,14.88,0,0,1-.1-2.11,25,25,0,0,1,.6-5.44,24.24,24.24,0,0,1,5.74-11.17,21.06,21.06,0,0,1,15.6-6.94,21.28,21.28,0,0,1,15.7,6.94,23.33,23.33,0,0,1,5.74,11.17A27.67,27.67,0,0,1,264.63,128.27ZM255.57,121l-.1-.2c-2-5.94-7.15-10-12.78-10s-10.67,4-12.78,10l-.1.2Z"/><path class="cls-1" d="M317.46,124.44V149.2h-8.66V124.44a13.59,13.59,0,1,0-27.17,0V149.2H273v-46.1h8.66v4.43c3.93-3,8.66-5.33,13.59-5.33a22.14,22.14,0,0,1,15.8,6.44A22.39,22.39,0,0,1,317.46,124.44Z"/><circle class="cls-2" cx="61.93" cy="121.12" r="10.81"/><path class="cls-2" d="M61.93,133.82a12.7,12.7,0,1,1,12.7-12.7A12.71,12.71,0,0,1,61.93,133.82Zm0-21.61a8.91,8.91,0,1,0,8.91,8.91A8.92,8.92,0,0,0,61.93,112.2Z"/><circle class="cls-2" cx="130.86" cy="121.12" r="10.81"/><path class="cls-2" d="M130.86,133.82a12.7,12.7,0,1,1,12.7-12.7A12.71,12.71,0,0,1,130.86,133.82Zm0-21.61a8.91,8.91,0,1,0,8.91,8.91A8.92,8.92,0,0,0,130.86,112.2Z"/><circle class="cls-3" cx="59.21" cy="118.39" r="3.38"/><circle class="cls-3" cx="126.82" cy="118.39" r="3.38"/><path class="cls-2" d="M144.85,188.68H47.95A28.48,28.48,0,0,1,19.37,160.4V100.51A28.48,28.48,0,0,1,47.95,72.23h96.9a28.48,28.48,0,0,1,28.58,28.28V160.4A28.48,28.48,0,0,1,144.85,188.68ZM47.95,79.15a21.76,21.76,0,0,0-21.87,21.36V160.4A21.76,21.76,0,0,0,47.95,182h96.9a21.76,21.76,0,0,0,21.87-21.56V100.51A21.76,21.76,0,0,0,144.85,79Z"/><path class="cls-2" d="M145,190.57H47.84a30.43,30.43,0,0,1-30.37-30.16v-59.9A30.44,30.44,0,0,1,47.84,70.34H145a30.43,30.43,0,0,1,30.36,30.16v59.9A30.43,30.43,0,0,1,145,190.57Zm-97-3.79h97a26.63,26.63,0,0,0,26.59-26.4V100.51A26.63,26.63,0,0,0,145,74.13H47.85a26.64,26.64,0,0,0-26.59,26.4V160.4a26.63,26.63,0,0,0,26.59,26.38Zm-.11-2.93a23.7,23.7,0,0,1-23.65-23.44V100.51A23.76,23.76,0,0,1,47.84,77.26h.11l96.9-.2H145a23.71,23.71,0,0,1,23.65,23.44V160.4a23.68,23.68,0,0,1-23.77,23.46h-97ZM47.84,81A20,20,0,0,0,28,100.55V160.4a19.91,19.91,0,0,0,19.87,19.67h97.1a19.91,19.91,0,0,0,19.88-19.69V100.51A19.91,19.91,0,0,0,145,80.84h-.09L47.94,81Z"/><path class="cls-2" d="M175.76,156.92h-9V104.2h9a15.15,15.15,0,0,1,15.15,15.15v22.07a15.15,15.15,0,0,1-14.79,15.5Zm-2.27-6.77h2.27a8.58,8.58,0,0,0,8.58-8.58h0V119.5a8.58,8.58,0,0,0-8.58-8.58h-2.27Z"/><path class="cls-2" d="M175.76,158.81H164.82V102.31h10.93a17.06,17.06,0,0,1,17,17v22.07a17.05,17.05,0,0,1-16.64,17.39ZM168.61,155h7.46A13.27,13.27,0,0,0,189,141.46V119.35a13.27,13.27,0,0,0-13.26-13.26h-7.15Zm7.15-3h-4.17V109h4.17a10.49,10.49,0,0,1,10.48,10.48v22.07A10.49,10.49,0,0,1,175.76,152Zm-.38-3.79h.38a6.7,6.7,0,0,0,6.69-6.69V119.5a6.7,6.7,0,0,0-6.69-6.69h-.38Z"/><path class="cls-2" d="M26.08,156.92H17A15.15,15.15,0,0,1,1.89,141.77h0V119.5A15.15,15.15,0,0,1,17,104.35h9Zm-9-46a8.58,8.58,0,0,0-8.58,8.58h0v22.07A8.58,8.58,0,0,0,17,150.15h2.27V111Z"/><path class="cls-2" d="M28,158.81H17a17.06,17.06,0,0,1-17-17V119.5a17.06,17.06,0,0,1,17-17H28ZM17,106.24A13.27,13.27,0,0,0,3.79,119.5v22.27A13.27,13.27,0,0,0,17,155h7.15V106.24ZM21.21,152H17A10.49,10.49,0,0,1,6.56,141.57V119.5A10.49,10.49,0,0,1,17,109h0l4.12.09ZM17,112.81a6.7,6.7,0,0,0-6.67,6.69v22.07A6.7,6.7,0,0,0,17,148.26h.38V112.82Z"/><path class="cls-2" d="M96.37,78.19a2.42,2.42,0,0,1-2.52-2.32s0-.07,0-.1V62.29a2.52,2.52,0,1,1,5,0V75.77a2.42,2.42,0,0,1-2.42,2.43Z"/><path class="cls-2" d="M96.27,80.09A4.32,4.32,0,0,1,92,76c0-.07,0-.14,0-.21V62.29a4.42,4.42,0,1,1,8.84,0V75.77a4.32,4.32,0,0,1-4.31,4.32h-.21Zm.09-3.79h.07l-.05,1.89.1-1.89a.53.53,0,0,0,.53-.53V62.29a.63.63,0,1,0-1.26,0V75.77a.52.52,0,0,0,.55.53Z"/><path class="cls-2" d="M126.24,62.51H69A20,20,0,0,1,49.1,42.59V19.93A20,20,0,0,1,69,0h57.22a20,20,0,0,1,19.93,19.93V42.59A20,20,0,0,1,126.24,62.51ZM69,9A10.94,10.94,0,0,0,58.1,19.93V42.59A10.94,10.94,0,0,0,69,53.51h57.22a10.94,10.94,0,0,0,10.93-10.93V19.93A10.94,10.94,0,0,0,126.24,9Z"/><path class="cls-2" d="M97.62,35.59a10.73,10.73,0,0,1-4.86-1.16L64.38,20a3.37,3.37,0,0,1,3-6L95.81,28.43a4,4,0,0,0,3.64,0L127.51,14a3.37,3.37,0,1,1,3.07,6L102.52,34.41A10.73,10.73,0,0,1,97.62,35.59Z"/><g class="cls-4"><path class="cls-2" d="M264.63,128.27H229.1v.2c1,7.65,6.74,13.39,13.39,13.49a17.42,17.42,0,0,0,11.27-4.83l7.25,4.33a27.31,27.31,0,0,1-6.14,5.13A26.29,26.29,0,0,1,242.68,150a20.63,20.63,0,0,1-15.6-7,23.76,23.76,0,0,1-6.24-14.49,14.88,14.88,0,0,1-.1-2.11,25,25,0,0,1,.6-5.44,24.24,24.24,0,0,1,5.74-11.17,21.06,21.06,0,0,1,15.6-6.94,21.28,21.28,0,0,1,15.7,6.94,23.33,23.33,0,0,1,5.74,11.17A27.67,27.67,0,0,1,264.63,128.27ZM255.57,121l-.1-.2c-2-5.94-7.15-10-12.78-10s-10.67,4-12.78,10l-.1.2Z"/><path class="cls-2" d="M317.46,124.44V149.2h-8.66V124.44a13.59,13.59,0,1,0-27.17,0V149.2H273v-46.1h8.66v4.43c3.93-3,8.66-5.33,13.59-5.33a22.14,22.14,0,0,1,15.8,6.44A22.39,22.39,0,0,1,317.46,124.44Z"/><path class="cls-2" d="M407.13,124.44V149.2h-8.66V124.44a13.64,13.64,0,1,0-27.28,0V149.2h-8.66V124.44a13.59,13.59,0,1,0-27.17,0V149.2h-8.66v-46.1h8.66v4.43c3.93-3,8.66-5.33,13.59-5.33a22.53,22.53,0,0,1,15.8,6.84,16.49,16.49,0,0,1,2.11,2.52,26.33,26.33,0,0,1,2.21-2.52,22.53,22.53,0,0,1,15.8-6.84,22.16,22.16,0,0,1,22.24,22.24Z"/><path class="cls-2" d="M463.39,126.16a24.23,24.23,0,0,1-24.16,24.16,24.11,24.11,0,1,1,0-48.21,24.05,24.05,0,0,1,24.16,24.05Zm-8.66,0a15.5,15.5,0,1,0-15.5,15.5A15.42,15.42,0,0,0,454.73,126.16Z"/></g><path class="cls-1" d="M407.13,124.44V149.2h-8.66V124.44a13.64,13.64,0,1,0-27.28,0V149.2h-8.66V124.44a13.59,13.59,0,1,0-27.17,0V149.2h-8.66v-46.1h8.66v4.43c3.93-3,8.66-5.33,13.59-5.33a22.53,22.53,0,0,1,15.8,6.84,16.49,16.49,0,0,1,2.11,2.52,26.33,26.33,0,0,1,2.21-2.52,22.53,22.53,0,0,1,15.8-6.84,22.16,22.16,0,0,1,22.24,22.24Z"/><path class="cls-1" d="M463.39,126.16a24.23,24.23,0,0,1-24.16,24.16,24.11,24.11,0,1,1,0-48.21,24.05,24.05,0,0,1,24.16,24.05Zm-8.66,0a15.5,15.5,0,1,0-15.5,15.5A15.42,15.42,0,0,0,454.73,126.16Z"/><g class="cls-4"><path class="cls-5" d="M555.8,140.35a34.77,34.77,0,0,1-2.52,2.92,24.43,24.43,0,0,1-34.12,0,24.3,24.3,0,0,1,0-34.22,24.43,24.43,0,0,1,34.12,0,21,21,0,0,1,2.42,2.82L548.75,117a15.52,15.52,0,1,0-12.48,24.76,15.39,15.39,0,0,0,12.48-6.54Z"/><path class="cls-5" d="M644.06,124.44V149.2H635.4V124.44a13.64,13.64,0,1,0-27.28,0V149.2h-8.66V124.44a13.59,13.59,0,1,0-27.17,0V149.2h-8.66v-46.1h8.66v4.43c3.92-3,8.66-5.33,13.59-5.33a22.53,22.53,0,0,1,15.8,6.84,16.49,16.49,0,0,1,2.11,2.52A26.39,26.39,0,0,1,606,109a22.53,22.53,0,0,1,15.8-6.84,22.17,22.17,0,0,1,22.24,22.24Z"/></g><circle class="cls-2" cx="487.48" cy="139.88" r="9.5"/></g></g></svg>