<svg id="Layer_1" data-name="Layer 1" xmlns="http://www.w3.org/2000/svg" viewBox="0 0 644.06 190.71"><defs><style>.cls-1{fill:#fff;}</style></defs><title>logo_only_white</title><path class="cls-1" d="M258.38,109.79a21.27,21.27,0,0,0-15.7-6.94H242a21.09,21.09,0,0,0-15.6,6.94A24.26,24.26,0,0,0,220.67,121a24.91,24.91,0,0,0-.6,5.44,16.56,16.56,0,0,0,.1,2.11A23.77,23.77,0,0,0,226.41,143a20.66,20.66,0,0,0,15.6,7h.67a26.34,26.34,0,0,0,12.19-3.41,27.25,27.25,0,0,0,6.14-5.13l-7.25-4.33-.27.24-.4-.24a17.34,17.34,0,0,1-11,4.8c-6.49-.31-12-6-13-13.46v-.2h35.53a28,28,0,0,0-.51-7.31A23.34,23.34,0,0,0,258.38,109.79ZM229.81,121l.1-.2c2.07-5.88,7-9.83,12.44-10,5.5.16,10.49,4.17,12.45,10l.1.2Z"/><path class="cls-1" d="M295.25,102.2c-4.93,0-9.66,2.33-13.59,5.33V103.1H273v46.83h8.63V124.44h0a13.59,13.59,0,1,1,27.17.74v24.76h8.66V124.44a22.38,22.38,0,0,0-6.41-15.8A22.13,22.13,0,0,0,295.25,102.2Z"/><path class="cls-1" d="M407.11,124.28a22.16,22.16,0,0,0-22.24-22.08,22.55,22.55,0,0,0-15.8,6.84,25.22,25.22,0,0,0-2.21,2.52,16.39,16.39,0,0,0-2.11-2.52A22.55,22.55,0,0,0,349,102.2c-4.93,0-9.66,2.33-13.59,5.33V103.1H326.7v46.1h8.66V124.44c0-.25,0-.49,0-.74a13.59,13.59,0,0,1,27.17.74V149.2h8.66V124.44h0a13.64,13.64,0,0,1,27.28,0V149.2h8.66V124.44h0Z"/><path class="cls-1" d="M439.23,102.11c-.33,0-.65,0-1,0a24.12,24.12,0,1,0,25.14,24v-.11A24.05,24.05,0,0,0,439.23,102.11Zm15.5,24.21a15.58,15.58,0,1,1,0-.16Z"/><path class="cls-1" d="M536.27,141.76A15.52,15.52,0,1,1,548.75,117l7-5.13a21,21,0,0,0-2.42-2.82,24.16,24.16,0,1,0,0,34.22,36.89,36.89,0,0,0,2.52-2.92l-7-5.13A15.4,15.4,0,0,1,536.27,141.76Z"/><path class="cls-1" d="M644,124.4v-.14a22.18,22.18,0,0,0-22.24-22.1A22.55,22.55,0,0,0,606,109a26.86,26.86,0,0,0-2.21,2.56,16.39,16.39,0,0,0-2.11-2.52,22.55,22.55,0,0,0-15.8-6.84c-4.93,0-9.67,2.33-13.59,5.33V103.1h-8.66v46.1h8.66V124.44c0-.25,0-.49,0-.74a13.59,13.59,0,0,1,27.17.74V149.2h8.66V124.44a13.64,13.64,0,1,1,27.28,0V149.2h8.66V124.44Z"/><circle class="cls-1" cx="487.48" cy="139.88" r="9.5"/><path class="cls-1" d="M61.93,108.41a12.7,12.7,0,1,0,12.7,12.7A12.71,12.71,0,0,0,61.93,108.41Z"/><path class="cls-1" d="M130.81,108.41a12.7,12.7,0,1,0,12.7,12.7A12.71,12.71,0,0,0,130.81,108.41Z"/><path class="cls-1" d="M175.7,102.3h-.47v-1.62a30.42,30.42,0,0,0-30.36-30.15H100.8v-8h25.39a20,20,0,0,0,19.89-19.93V19.93A20,20,0,0,0,126.15,0H68.93A20,20,0,0,0,49,19.92V42.58A20,20,0,0,0,68.93,62.51H92v8H47.72a30.43,30.43,0,0,0-30.35,30.12v1.84H17a17,17,0,0,0-17,17v22.32a17,17,0,0,0,17,17h.37v1.74a30.42,30.42,0,0,0,30.38,30.16h97.12a30.42,30.42,0,0,0,30.36-30.18v-1.72h.47l.36,0h0a17,17,0,0,0,16.6-17.39V119.3A17,17,0,0,0,175.7,102.3Zm-158.37,46H17a6.71,6.71,0,0,1-6.69-6.69V119.49a6.71,6.71,0,0,1,6.67-6.69h.4Zm51.6-94.74A11,11,0,0,1,58,42.58V19.93A11,11,0,0,1,68.93,9h57.22a10.94,10.94,0,0,1,10.93,10.92V42.58a11,11,0,0,1-10.93,10.93Zm95.82,107a19.92,19.92,0,0,1-19.88,19.69H47.76a19.92,19.92,0,0,1-19.87-19.67v-1.72h0V102.49h0v-1.81a20,20,0,0,1,19.87-19.5h.1l96.92-.2h.09a19.91,19.91,0,0,1,19.88,19.67Zm17.64-19a6.71,6.71,0,0,1-6.69,6.69h-.38V112.8h.38a6.71,6.71,0,0,1,6.69,6.69Z"/><path class="cls-1" d="M132,15.5a3.36,3.36,0,0,0-4.52-1.5l-28,14.37a4,4,0,0,1-3.64,0L67.34,14a3.37,3.37,0,0,0-3,6L92.71,34.43a10.8,10.8,0,0,0,4.86,1.16,10.69,10.69,0,0,0,4.86-1.21L130.5,20A3.37,3.37,0,0,0,132,15.5Z"/></svg>