<svg id="Calque_1" data-name="Calque 1" xmlns="http://www.w3.org/2000/svg" viewBox="0 0 192.7 190.71"><defs><style>.cls-1{fill:#fff;}</style></defs><title>logo_only</title><path class="cls-1" d="M61.93,133.81a12.7,12.7,0,1,0-12.7-12.7A12.72,12.72,0,0,0,61.93,133.81Z"/><path class="cls-1" d="M130.81,133.81a12.7,12.7,0,1,0-12.7-12.7A12.72,12.72,0,0,0,130.81,133.81Z"/><path class="cls-1" d="M175.7,102.3h-.47v-1.62a30.42,30.42,0,0,0-30.36-30.15H100.8v-8h25.39a20,20,0,0,0,19.89-19.93V19.93A20,20,0,0,0,126.15,0H68.93A20,20,0,0,0,49,19.92V42.58A20,20,0,0,0,68.93,62.51H92v8H47.72a30.43,30.43,0,0,0-30.35,30.12v1.84H17a17,17,0,0,0-17,17v22.32a17,17,0,0,0,17,17h.37v1.74a30.42,30.42,0,0,0,30.38,30.16h97.12a30.42,30.42,0,0,0,30.36-30.18v-1.72h.47l.36,0h0a17,17,0,0,0,16.6-17.39V119.3A17,17,0,0,0,175.7,102.3Zm6.69,17.19v22a6.71,6.71,0,0,1-6.69,6.69h-.38V112.8h.38A6.71,6.71,0,0,1,182.39,119.49ZM27.89,158.81h0V102.49h0v-1.81a20,20,0,0,1,19.87-19.5h.1l96.92-.2h.09a19.91,19.91,0,0,1,19.88,19.67v59.86a19.92,19.92,0,0,1-19.88,19.69H47.76a19.92,19.92,0,0,1-19.87-19.67Zm-10.56-46v35.44H17a6.71,6.71,0,0,1-6.69-6.69V119.49a6.71,6.71,0,0,1,6.67-6.69ZM58,42.58V19.93A11,11,0,0,1,68.93,9h57.22a10.94,10.94,0,0,1,10.93,10.92V42.58a11,11,0,0,1-10.93,10.93H68.93A11,11,0,0,1,58,42.58Z"/><path class="cls-1" d="M132,15.5a3.36,3.36,0,0,0-4.52-1.5l-28,14.37a4,4,0,0,1-3.64,0L67.34,14a3.37,3.37,0,0,0-3,6L92.71,34.43a10.8,10.8,0,0,0,4.86,1.16,10.69,10.69,0,0,0,4.86-1.21L130.5,20A3.37,3.37,0,0,0,132,15.5Z"/></svg>