<svg id="Calque_1" data-name="Calque 1" xmlns="http://www.w3.org/2000/svg" viewBox="0 0 192.7 190.57"><defs><style>.cls-1{fill:#280d43;}</style></defs><title>logo</title><circle class="cls-1" cx="61.88" cy="121.12" r="10.81"/><path class="cls-1" d="M178.5,133.81a12.7,12.7,0,1,1,12.7-12.7h0A12.71,12.71,0,0,1,178.5,133.81Zm0-21.61a8.91,8.91,0,1,0,8.91,8.91A8.91,8.91,0,0,0,178.5,112.2Z" transform="translate(-116.57)"/><circle class="cls-1" cx="130.81" cy="121.12" r="10.81"/><path class="cls-1" d="M247.38,133.81a12.7,12.7,0,1,1,12.7-12.7h0A12.71,12.71,0,0,1,247.38,133.81Zm0-21.61a8.91,8.91,0,1,0,8.91,8.91A8.91,8.91,0,0,0,247.38,112.2Z" transform="translate(-116.57)"/><circle class="cls-1" cx="59.16" cy="118.39" r="3.38"/><circle class="cls-1" cx="126.77" cy="118.39" r="3.38"/><path class="cls-1" d="M261.37,188.68H164.5a28.48,28.48,0,0,1-28.58-28.28V100.51A28.48,28.48,0,0,1,164.5,72.23h96.9A28.48,28.48,0,0,1,290,100.51v59.87A28.48,28.48,0,0,1,261.37,188.68ZM164.5,79.15a21.76,21.76,0,0,0-21.87,21.36v59.87a21.76,21.76,0,0,0,21.87,21.56h96.9a21.76,21.76,0,0,0,21.87-21.56V100.51A21.76,21.76,0,0,0,261.4,79Z" transform="translate(-116.57)"/><path class="cls-1" d="M261.5,190.57H164.38A30.43,30.43,0,0,1,134,160.41v-59.9a30.44,30.44,0,0,1,30.35-30.13H261.5a30.43,30.43,0,0,1,30.36,30.16v59.84A30.43,30.43,0,0,1,261.5,190.57Zm-97-3.79h97a26.63,26.63,0,0,0,26.59-26.4V100.51A26.63,26.63,0,0,0,261.5,74.12H164.4a26.64,26.64,0,0,0-26.59,26.4v59.86a26.63,26.63,0,0,0,26.59,26.38Zm-.11-2.93a23.7,23.7,0,0,1-23.69-23.47V100.51a23.76,23.76,0,0,1,23.65-23.25h.11l96.9-.2h.11a23.71,23.71,0,0,1,23.65,23.44v59.88a23.68,23.68,0,0,1-23.77,23.46h-97Zm0-102.81a20,20,0,0,0-19.87,19.5v59.84a19.91,19.91,0,0,0,19.87,19.67H261.5a19.91,19.91,0,0,0,19.88-19.69V100.51A19.91,19.91,0,0,0,261.5,80.84h-.09l-96.92.2Z" transform="translate(-116.57)"/><path class="cls-1" d="M292.27,156.91h-9V104.19h9a15.15,15.15,0,0,1,15.15,15.15v22a15.15,15.15,0,0,1-14.79,15.5ZM290,150.14h2.27a8.58,8.58,0,0,0,8.58-8.58h0V119.49a8.58,8.58,0,0,0-8.58-8.58H290Z" transform="translate(-116.57)"/><path class="cls-1" d="M292.27,158.81H281.34V102.3h10.93a17.06,17.06,0,0,1,17,17v22.08a17,17,0,0,1-16.64,17.39ZM285.12,155h7.46a13.27,13.27,0,0,0,12.94-13.56V119.38a13.27,13.27,0,0,0-13.26-13.26h-7.15Zm7.15-3H288.1V109h4.17a10.49,10.49,0,0,1,10.48,10.48v22.07A10.49,10.49,0,0,1,292.27,152Zm-.38-3.79h.38a6.7,6.7,0,0,0,6.69-6.69V119.49a6.7,6.7,0,0,0-6.69-6.69h-.38Z" transform="translate(-116.57)"/><path class="cls-1" d="M142.6,156.91h-9a15.15,15.15,0,0,1-15.15-15.15h0V119.49a15.15,15.15,0,0,1,15.11-15.11h9Zm-9-46a8.58,8.58,0,0,0-8.58,8.58h0v22.07a8.58,8.58,0,0,0,8.58,8.58h2.27V111Z" transform="translate(-116.57)"/><path class="cls-1" d="M144.5,158.81H133.57a17.06,17.06,0,0,1-17-17V119.49a17.06,17.06,0,0,1,17-17H144.5Zm-10.93-52.57a13.27,13.27,0,0,0-13.26,13.26v22.27A13.27,13.27,0,0,0,133.57,155h7.15V106.24Zm4.17,45.8h-4.17a10.49,10.49,0,0,1-10.48-10.48V119.49A10.49,10.49,0,0,1,133.57,109h0l4.12.09ZM133.5,112.8a6.7,6.7,0,0,0-6.67,6.69v22.07a6.7,6.7,0,0,0,6.69,6.69h.38V112.81Z" transform="translate(-116.57)"/><path class="cls-1" d="M212.89,78.19a2.42,2.42,0,0,1-2.52-2.32h0V62.28a2.52,2.52,0,1,1,5,0V75.76A2.42,2.42,0,0,1,213,78.19h-.07Z" transform="translate(-116.57)"/><path class="cls-1" d="M212.79,80.08a4.32,4.32,0,0,1-4.31-4.14V62.28a4.42,4.42,0,0,1,8.84,0v13.5A4.32,4.32,0,0,1,213,80.08h-.22Zm.09-3.79h.07l-.05,1.89.1-1.89a.53.53,0,0,0,.53-.53h0V62.28a.63.63,0,1,0-1.26,0V75.76a.52.52,0,0,0,.51.53h.1Z" transform="translate(-116.57)"/><path class="cls-1" d="M242.76,62.51H185.5a20,20,0,0,1-19.93-19.93V19.92A20,20,0,0,1,185.5,0h57.22a20,20,0,0,1,19.93,19.93V42.58A20,20,0,0,1,242.76,62.51ZM185.5,9a10.94,10.94,0,0,0-10.93,10.93V42.58A10.94,10.94,0,0,0,185.5,53.51h57.22a10.94,10.94,0,0,0,10.93-10.93V19.92A10.94,10.94,0,0,0,242.72,9Z" transform="translate(-116.57)"/><path class="cls-1" d="M214.14,35.59a10.73,10.73,0,0,1-4.86-1.16L180.91,20a3.37,3.37,0,0,1,3-6l28.41,14.37a4,4,0,0,0,3.64,0L244,14a3.37,3.37,0,0,1,3.07,6L219,34.38A10.73,10.73,0,0,1,214.14,35.59Z" transform="translate(-116.57)"/></svg>