<?xml version="1.0" encoding="UTF-8"?> <svg xmlns="http://www.w3.org/2000/svg" viewBox="0 0 520 130"> <defs> <style>.a,.c{fill:#24b0ed;}.b{fill:#f99830;}.c{stroke:#24b0ed;stroke-miterlimit:10;stroke-width:2px;}</style> </defs> <title>maarch-color</title> <path class="a" d="M241.73,83.58,216,37.9V95.68a4.06,4.06,0,0,1-8.12,0V22.52A4,4,0,0,1,212,18.64a4.08,4.08,0,0,1,3.69,2.23l29.77,53.2,29.89-53.2A4.07,4.07,0,0,1,279,18.64a4,4,0,0,1,4.06,3.88V95.68a4.06,4.06,0,0,1-8.12,0V37.9L249.11,83.58a4.17,4.17,0,0,1-7.38,0" transform="translate(-15 -15)"></path> <path class="a" d="M332.26,78.3V73.36H314.92c-8,0-13.53,3.17-13.53,10,0,6.1,4.43,10,14,10,8.61,0,16.85-5,16.85-15M303.48,56.69a4.07,4.07,0,0,1-3.2,1.64,3.49,3.49,0,0,1-3.57-3.4,3.54,3.54,0,0,1,.62-2c3.44-5.17,10.08-9.28,20.42-9.28,14.27,0,22.14,8,22.14,20V95.91a3.82,3.82,0,0,1-7.63,0V91.68c-3.07,5.52-10.21,8.46-17.59,8.46-13,0-21.28-6-21.28-16.79,0-10.34,8.24-16.56,21.53-16.56h17.34V63.62c0-8-5.53-12.92-14.51-12.92-6.52,0-10.46,1.88-14.27,6" transform="translate(-15 -15)"></path> <path class="a" d="M386,78.3V73.36H368.67c-8,0-13.53,3.17-13.53,10,0,6.1,4.43,10,14,10,8.61,0,16.85-5,16.85-15M357.23,56.69A4.07,4.07,0,0,1,354,58.33a3.49,3.49,0,0,1-3.57-3.4,3.54,3.54,0,0,1,.61-2c3.45-5.17,10.09-9.28,20.42-9.28,14.27,0,22.15,8,22.15,20V95.91a3.82,3.82,0,0,1-7.63,0V91.68c-3.08,5.52-10.21,8.46-17.59,8.46-13,0-21.28-6-21.28-16.79,0-10.34,8.24-16.56,21.52-16.56H386V63.62c0-8-5.54-12.92-14.52-12.92-6.52,0-10.45,1.88-14.27,6" transform="translate(-15 -15)"></path> <path class="a" d="M412.59,53.28c2.46-5.4,8.61-9.39,17.1-9.39a3.64,3.64,0,1,1,0,7.28c-11.32,0-17.1,7.51-17.1,18.32v26.3a3.94,3.94,0,0,1-7.87,0V48.12a3.94,3.94,0,0,1,7.87,0v5.16Z" transform="translate(-15 -15)"></path> <path class="a" d="M460.07,43.65c10.95,0,17,5.52,18.95,8.11a3.38,3.38,0,0,1-2.71,5.63A3.72,3.72,0,0,1,473.36,56c-1.85-2-5.17-5.52-13.29-5.52-11.31,0-17.34,6.93-17.34,21.38,0,14.68,6,21.49,17.34,21.49,7.14,0,11.44-3.06,14.27-5a3.79,3.79,0,0,1,2.34-.82,3.49,3.49,0,0,1,3.57,3.4,3.61,3.61,0,0,1-1.6,2.94,28.84,28.84,0,0,1-18.58,6.34c-15.86,0-25.34-9-25.34-28.3s9.48-28.19,25.34-28.19" transform="translate(-15 -15)"></path> <path class="a" d="M534.62,64.44V95.79a3.94,3.94,0,0,1-7.87,0V66c0-9.28-2.83-15.62-14.76-15.62-12.18,0-16.37,7-16.37,16.44v29a3.94,3.94,0,0,1-7.87,0v-77a3.94,3.94,0,0,1,7.87,0V51.87C498,47.41,504,43.65,512,43.65c18.94,0,22.63,10.81,22.63,20.79" transform="translate(-15 -15)"></path> <path class="a" d="M41.55,69.87l15.06,37.38L118.86,132l4.88-49.64-16.4,6.93L41.55,69.87Z" transform="translate(-15 -15)"></path> <path class="a" d="M125.07,82.09l-4.14,47.47,25.26-39.22,1.63-10-22.75,1.77Z" transform="translate(-15 -15)"></path> <path class="a" d="M15,59.82l21.72-.88,85.39,22-14.33,6.48L15,59.82Z" transform="translate(-15 -15)"></path> <path class="a" d="M16.63,44.49,73.36,25.33l15.22,8.25L37,57.76Z" transform="translate(-15 -15)"></path> <path class="a" d="M92.86,32.85l8.57-9.29,61.76,7.66L157.13,43.9l-64.27-11Z" transform="translate(-15 -15)"></path> <path class="a" d="M158.46,45.23,128,79.29l36.64-1.48,18.62-36.27-24.82,3.69Z" transform="translate(-15 -15)"></path> <path class="b" d="M91.66,35.31l63.1,9.92-29.4,34.06L95.08,71.91Z" transform="translate(-15 -15)"></path> <path class="b" d="M89.31,35.5l3.55,35.58L42.73,57.76,89.31,35.5Z" transform="translate(-15 -15)"></path> <path class="b" d="M248.87,136.17a9.12,9.12,0,0,1,14.71-7,1.41,1.41,0,0,1,.28,2,1.43,1.43,0,0,1-2,.22A6.42,6.42,0,0,0,258,130.1a6.12,6.12,0,0,0-4.44,1.79,5.82,5.82,0,0,0,0,8.51,6.13,6.13,0,0,0,4.44,1.8,6.73,6.73,0,0,0,3.37-.94v-3.37h-3.52a1.42,1.42,0,0,1-1.41-1.4,1.38,1.38,0,0,1,1.41-1.38h4.9a1.39,1.39,0,0,1,1.43,1.38v5.44a2.33,2.33,0,0,1-.07.41.69.69,0,0,0-.05.13v0a1.18,1.18,0,0,1-.47.59A9.07,9.07,0,0,1,258,145a9,9,0,0,1-9.1-8.83" transform="translate(-15 -15)"></path> <path class="b" d="M277.17,133.07a2.54,2.54,0,0,0-2.54-2.56h-3v5.07h3a2.53,2.53,0,0,0,2.54-2.51m3.45,9.89a1.36,1.36,0,0,1-.87,1.72,2.34,2.34,0,0,1-.54.07h0a1.78,1.78,0,0,1-1-.27,2.27,2.27,0,0,1-.79-.86,6.52,6.52,0,0,1-.52-3,2.05,2.05,0,0,0-.29-1.06,2.33,2.33,0,0,0-.75-.71,4.74,4.74,0,0,0-1.37-.59H271.6v5.34a1.38,1.38,0,0,1-1.38,1.35,1.35,1.35,0,0,1-1.36-1.35V129.14a1.34,1.34,0,0,1,1.36-1.36h4.41a5.27,5.27,0,0,1,5.27,5.29,5.21,5.21,0,0,1-1.92,4,3.79,3.79,0,0,1,.86.92,4.58,4.58,0,0,1,.82,2.65,6.54,6.54,0,0,0,.09,1.45,1.35,1.35,0,0,1,.87.84" transform="translate(-15 -15)"></path> <path class="b" d="M297,136.15a6.36,6.36,0,0,0-1.67-4.31,5.32,5.32,0,0,0-7.89,0,6.27,6.27,0,0,0-1.67,4.31,6.13,6.13,0,0,0,1.67,4.27,5.26,5.26,0,0,0,7.89,0,6.22,6.22,0,0,0,1.67-4.27m.32-6.23a9,9,0,0,1,0,12.45,8.06,8.06,0,0,1-5.89,2.63,8.31,8.31,0,0,1-6-2.63,9.16,9.16,0,0,1,0-12.45,8.23,8.23,0,0,1,6-2.63,8,8,0,0,1,5.89,2.63" transform="translate(-15 -15)"></path> <path class="b" d="M310.2,145a7.11,7.11,0,0,1-7.13-7.11v-8.75a1.34,1.34,0,0,1,1.36-1.36,1.37,1.37,0,0,1,1.38,1.36v8.75a4.39,4.39,0,0,0,8.77,0v-8.75a1.36,1.36,0,0,1,1.38-1.36,1.34,1.34,0,0,1,1.36,1.36v8.75A7.12,7.12,0,0,1,310.2,145" transform="translate(-15 -15)"></path> <path class="b" d="M325.36,135.58h3a2.54,2.54,0,1,0,0-5.07h-3Zm3,2.73h-3v5.34a1.37,1.37,0,0,1-2.74,0V129.14a1.35,1.35,0,0,1,1.36-1.36h4.41a5.27,5.27,0,1,1,0,10.53" transform="translate(-15 -15)"></path> <path class="b" d="M336.5,143.65V129.14a1.33,1.33,0,0,1,1.35-1.36h8.06a1.37,1.37,0,0,1,1.36,1.36,1.38,1.38,0,0,1-1.36,1.37h-6.68V135H345a1.39,1.39,0,0,1,1.35,1.36,1.37,1.37,0,0,1-1.35,1.37h-5.75v4.53h6.68a1.37,1.37,0,0,1,0,2.73h-8c-.05,0-.05,0-.05,0l0,0a1.34,1.34,0,0,1-1.35-1.35" transform="translate(-15 -15)"></path> <path class="b" d="M365.31,138.24l-2-5.29-2,5.29Zm1,2.7h-6l-1.21,3.2a1.37,1.37,0,0,1-1.28.86,1.78,1.78,0,0,1-.47-.07,1.4,1.4,0,0,1-.81-1.78L362,128.67a1.37,1.37,0,0,1,1.31-.86,1.35,1.35,0,0,1,1.3.86l5.45,14.48a1.41,1.41,0,0,1-.81,1.78,1.66,1.66,0,0,1-.47.07,1.33,1.33,0,0,1-1.26-.86l-1.21-3.2Z" transform="translate(-15 -15)"></path> <path class="b" d="M380.91,133.07a2.53,2.53,0,0,0-2.53-2.56h-3v5.07h3a2.52,2.52,0,0,0,2.53-2.51m3.45,9.89a1.35,1.35,0,0,1-.86,1.72,2.43,2.43,0,0,1-.54.07h0a1.84,1.84,0,0,1-1-.27,2.35,2.35,0,0,1-.79-.86,6.68,6.68,0,0,1-.51-3,2.15,2.15,0,0,0-.3-1.06,2.3,2.3,0,0,0-.74-.71,4.77,4.77,0,0,0-1.38-.59h-2.91v5.34A1.37,1.37,0,0,1,374,145a1.35,1.35,0,0,1-1.35-1.35V129.14a1.33,1.33,0,0,1,1.35-1.36h4.42a5.27,5.27,0,0,1,5.27,5.29,5.21,5.21,0,0,1-1.92,4,4,4,0,0,1,.86.92,4.65,4.65,0,0,1,.81,2.65,6.34,6.34,0,0,0,.1,1.45,1.31,1.31,0,0,1,.86.84" transform="translate(-15 -15)"></path> <path class="b" d="M387.1,136.15a9.06,9.06,0,0,1,9-8.86,9.19,9.19,0,0,1,5.69,1.92,1.41,1.41,0,0,1-1.72,2.24,6.14,6.14,0,0,0-4-1.36,6.52,6.52,0,0,0-4.44,1.78,6,6,0,0,0-1.8,4.28,6,6,0,0,0,1.8,4.27,6.52,6.52,0,0,0,4.44,1.78,6.18,6.18,0,0,0,4-1.36,1.49,1.49,0,0,1,2,.27,1.46,1.46,0,0,1-.25,2,9.19,9.19,0,0,1-5.69,1.92,9,9,0,0,1-9-8.85" transform="translate(-15 -15)"></path> <path class="b" d="M406.38,143.65V129.14a1.33,1.33,0,0,1,1.35-1.36,1.35,1.35,0,0,1,1.38,1.36V135h6.39v-5.9a1.33,1.33,0,0,1,1.35-1.36,1.35,1.35,0,0,1,1.38,1.36v14.51a1.35,1.35,0,0,1-1.38,1.35,1.33,1.33,0,0,1-1.35-1.35v-5.91h-6.39v5.91a1.35,1.35,0,0,1-1.38,1.35,1.33,1.33,0,0,1-1.35-1.35" transform="translate(-15 -15)"></path> <path class="b" d="M422.3,129.14a1.34,1.34,0,0,1,1.36-1.36,1.37,1.37,0,0,1,1.38,1.36v14.51a1.37,1.37,0,0,1-1.38,1.35,1.33,1.33,0,0,1-1.36-1.35Z" transform="translate(-15 -15)"></path> <path class="b" d="M434.77,144.75a1.25,1.25,0,0,0-.17-.12s0,0,0-.07a.87.87,0,0,1-.13-.15s0,0,0,0-.08-.14-.12-.19l-6-14.37a1.3,1.3,0,0,1,.74-1.74,1.33,1.33,0,0,1,1.75.71l4.8,11.39,4.81-11.39a1.36,1.36,0,0,1,2.51,1l-6.09,14.37a.66.66,0,0,1-.09.19s0,0,0,0-.1.1-.12.15l-.05.07c-.05.05-.1.07-.15.12l-.05,0c-.05,0-.12.1-.2.12s0,0,0,0a.65.65,0,0,0-.2,0h-.05a.77.77,0,0,1-.25,0,.66.66,0,0,1-.24,0h-.05a.71.71,0,0,0-.2,0,0,0,0,0,0,0,0h0a1.74,1.74,0,0,1-.22-.15Z" transform="translate(-15 -15)"></path> <path class="b" d="M446.41,143.65V129.14a1.33,1.33,0,0,1,1.35-1.36h8.06a1.37,1.37,0,0,1,1.36,1.36,1.38,1.38,0,0,1-1.36,1.37h-6.68V135h5.75a1.39,1.39,0,0,1,1.35,1.36,1.37,1.37,0,0,1-1.35,1.37h-5.75v4.53h6.68a1.37,1.37,0,0,1,0,2.73h-8s0,0,0,0l0,0a1.34,1.34,0,0,1-1.35-1.35" transform="translate(-15 -15)"></path> <path class="b" d="M459.77,136.15a9,9,0,0,1,9-8.86,9.24,9.24,0,0,1,5.7,1.92,1.42,1.42,0,0,1-1.73,2.24,6.12,6.12,0,0,0-4-1.36,6.49,6.49,0,0,0-4.43,1.78,6,6,0,0,0-1.8,4.28,6,6,0,0,0,1.8,4.27,6.49,6.49,0,0,0,4.43,1.78,6.18,6.18,0,0,0,4-1.36,1.49,1.49,0,0,1,2,.27,1.45,1.45,0,0,1-.24,2,9.24,9.24,0,0,1-5.7,1.92,9,9,0,0,1-9-8.85" transform="translate(-15 -15)"></path> <path class="b" d="M491.83,136.15a6.36,6.36,0,0,0-1.67-4.31,5.32,5.32,0,0,0-7.89,0,6.27,6.27,0,0,0-1.67,4.31,6.13,6.13,0,0,0,1.67,4.27,5.26,5.26,0,0,0,7.89,0,6.22,6.22,0,0,0,1.67-4.27m.33-6.23a9.05,9.05,0,0,1,0,12.45,8.1,8.1,0,0,1-5.9,2.63,8.31,8.31,0,0,1-6-2.63,9.16,9.16,0,0,1,0-12.45,8.23,8.23,0,0,1,6-2.63,8,8,0,0,1,5.9,2.63" transform="translate(-15 -15)"></path> <path class="c" d="M207.61,135.94h28.95" transform="translate(-15 -15)"></path> <path class="c" d="M506,135.94h29" transform="translate(-15 -15)"></path> </svg> 